<mxfile host="app.diagrams.net" modified="2022-08-31T03:26:27.200Z" agent="5.0 (Macintosh)" etag="lw7NsJMIhyexnk1g0yHX" version="20.2.4" type="github">
  <diagram id="jLLqIvWEwyRoLrZAyTdM" name="第 1 页">
    <mxGraphModel dx="1219" dy="795" grid="1" gridSize="10" guides="1" tooltips="1" connect="1" arrows="1" fold="1" page="1" pageScale="1" pageWidth="2000" pageHeight="3000" math="0" shadow="0">
      <root>
        <mxCell id="0" />
        <mxCell id="1" parent="0" />
        <mxCell id="1HW_Z-nUwjSf0aDEmiX4-9" value="" style="rounded=1;whiteSpace=wrap;html=1;fontSize=16;fillColor=#d5e8d4;strokeColor=#82b366;" vertex="1" parent="1">
          <mxGeometry x="240" y="600" width="600" height="90" as="geometry" />
        </mxCell>
        <mxCell id="1HW_Z-nUwjSf0aDEmiX4-7" value="JVM Heap" style="rounded=1;whiteSpace=wrap;html=1;fontSize=16;fillColor=#d5e8d4;strokeColor=#82b366;" vertex="1" parent="1">
          <mxGeometry x="640" y="615" width="160" height="60" as="geometry" />
        </mxCell>
        <mxCell id="1HW_Z-nUwjSf0aDEmiX4-10" value="OS Memory" style="text;html=1;strokeColor=none;fillColor=none;align=center;verticalAlign=middle;whiteSpace=wrap;rounded=0;fontSize=16;" vertex="1" parent="1">
          <mxGeometry x="405" y="630" width="130" height="30" as="geometry" />
        </mxCell>
        <mxCell id="1HW_Z-nUwjSf0aDEmiX4-11" value="" style="rounded=1;whiteSpace=wrap;html=1;fontSize=16;fillColor=#dae8fc;strokeColor=#6c8ebf;" vertex="1" parent="1">
          <mxGeometry x="240" y="360" width="600" height="160" as="geometry" />
        </mxCell>
        <mxCell id="1HW_Z-nUwjSf0aDEmiX4-31" style="edgeStyle=none;rounded=0;orthogonalLoop=1;jettySize=auto;html=1;exitX=0.5;exitY=1;exitDx=0;exitDy=0;entryX=0.418;entryY=-0.022;entryDx=0;entryDy=0;entryPerimeter=0;fontSize=16;" edge="1" parent="1" source="1HW_Z-nUwjSf0aDEmiX4-12" target="1HW_Z-nUwjSf0aDEmiX4-9">
          <mxGeometry relative="1" as="geometry" />
        </mxCell>
        <mxCell id="1HW_Z-nUwjSf0aDEmiX4-12" value="UnsafeMemoryAllocator" style="rounded=1;whiteSpace=wrap;html=1;fontSize=16;fillColor=#dae8fc;strokeColor=#6c8ebf;" vertex="1" parent="1">
          <mxGeometry x="390" y="470" width="200" height="40" as="geometry" />
        </mxCell>
        <mxCell id="1HW_Z-nUwjSf0aDEmiX4-32" style="edgeStyle=none;rounded=0;orthogonalLoop=1;jettySize=auto;html=1;exitX=0.5;exitY=1;exitDx=0;exitDy=0;fontSize=16;" edge="1" parent="1" source="1HW_Z-nUwjSf0aDEmiX4-13" target="1HW_Z-nUwjSf0aDEmiX4-7">
          <mxGeometry relative="1" as="geometry" />
        </mxCell>
        <mxCell id="1HW_Z-nUwjSf0aDEmiX4-13" value="HeapMemoryAllocator" style="rounded=1;whiteSpace=wrap;html=1;fontSize=16;fillColor=#dae8fc;strokeColor=#6c8ebf;" vertex="1" parent="1">
          <mxGeometry x="620" y="470" width="200" height="40" as="geometry" />
        </mxCell>
        <mxCell id="1HW_Z-nUwjSf0aDEmiX4-14" value="OffheapExecutionMemoryPool" style="rounded=0;whiteSpace=wrap;html=1;fontSize=16;fillColor=#dae8fc;strokeColor=#6c8ebf;" vertex="1" parent="1">
          <mxGeometry x="380" y="370" width="220" height="40" as="geometry" />
        </mxCell>
        <mxCell id="1HW_Z-nUwjSf0aDEmiX4-15" value="OffheapStorageMemoryPool" style="rounded=0;whiteSpace=wrap;html=1;fontSize=16;fillColor=#dae8fc;strokeColor=#6c8ebf;" vertex="1" parent="1">
          <mxGeometry x="380" y="410" width="220" height="40" as="geometry" />
        </mxCell>
        <mxCell id="1HW_Z-nUwjSf0aDEmiX4-16" value="OffheapExecutionMemoryPool" style="rounded=0;whiteSpace=wrap;html=1;fontSize=16;fillColor=#dae8fc;strokeColor=#6c8ebf;" vertex="1" parent="1">
          <mxGeometry x="610" y="370" width="220" height="40" as="geometry" />
        </mxCell>
        <mxCell id="1HW_Z-nUwjSf0aDEmiX4-17" value="OffheapStorageMemoryPool" style="rounded=0;whiteSpace=wrap;html=1;fontSize=16;fillColor=#dae8fc;strokeColor=#6c8ebf;" vertex="1" parent="1">
          <mxGeometry x="610" y="410" width="220" height="40" as="geometry" />
        </mxCell>
        <mxCell id="1HW_Z-nUwjSf0aDEmiX4-18" value="MemoryManager" style="text;html=1;strokeColor=none;fillColor=#dae8fc;align=center;verticalAlign=middle;whiteSpace=wrap;rounded=0;fontSize=16;" vertex="1" parent="1">
          <mxGeometry x="243" y="425" width="130" height="30" as="geometry" />
        </mxCell>
        <mxCell id="1HW_Z-nUwjSf0aDEmiX4-26" style="rounded=0;orthogonalLoop=1;jettySize=auto;html=1;exitX=0.5;exitY=1;exitDx=0;exitDy=0;entryX=0.382;entryY=-0.006;entryDx=0;entryDy=0;entryPerimeter=0;fontSize=16;" edge="1" parent="1" source="1HW_Z-nUwjSf0aDEmiX4-19" target="1HW_Z-nUwjSf0aDEmiX4-11">
          <mxGeometry relative="1" as="geometry" />
        </mxCell>
        <mxCell id="1HW_Z-nUwjSf0aDEmiX4-19" value="TaskMemoryManager" style="rounded=1;whiteSpace=wrap;html=1;fontSize=16;fillColor=#e1d5e7;strokeColor=#9673a6;" vertex="1" parent="1">
          <mxGeometry x="200" y="240" width="200" height="40" as="geometry" />
        </mxCell>
        <mxCell id="1HW_Z-nUwjSf0aDEmiX4-25" style="edgeStyle=orthogonalEdgeStyle;rounded=0;orthogonalLoop=1;jettySize=auto;html=1;exitX=0.5;exitY=1;exitDx=0;exitDy=0;entryX=0.5;entryY=0;entryDx=0;entryDy=0;fontSize=16;" edge="1" parent="1" source="1HW_Z-nUwjSf0aDEmiX4-20" target="1HW_Z-nUwjSf0aDEmiX4-11">
          <mxGeometry relative="1" as="geometry" />
        </mxCell>
        <mxCell id="1HW_Z-nUwjSf0aDEmiX4-20" value="TaskMemoryManager" style="rounded=1;whiteSpace=wrap;html=1;fontSize=16;fillColor=#e1d5e7;strokeColor=#9673a6;" vertex="1" parent="1">
          <mxGeometry x="440" y="240" width="200" height="40" as="geometry" />
        </mxCell>
        <mxCell id="1HW_Z-nUwjSf0aDEmiX4-27" style="edgeStyle=none;rounded=0;orthogonalLoop=1;jettySize=auto;html=1;exitX=0.5;exitY=1;exitDx=0;exitDy=0;entryX=0.618;entryY=0.006;entryDx=0;entryDy=0;entryPerimeter=0;fontSize=16;" edge="1" parent="1" source="1HW_Z-nUwjSf0aDEmiX4-21" target="1HW_Z-nUwjSf0aDEmiX4-11">
          <mxGeometry relative="1" as="geometry" />
        </mxCell>
        <mxCell id="1HW_Z-nUwjSf0aDEmiX4-21" value="TaskMemoryManager" style="rounded=1;whiteSpace=wrap;html=1;fontSize=16;fillColor=#e1d5e7;strokeColor=#9673a6;" vertex="1" parent="1">
          <mxGeometry x="680" y="240" width="200" height="40" as="geometry" />
        </mxCell>
        <mxCell id="1HW_Z-nUwjSf0aDEmiX4-28" style="edgeStyle=none;rounded=0;orthogonalLoop=1;jettySize=auto;html=1;exitX=0.5;exitY=1;exitDx=0;exitDy=0;entryX=0.5;entryY=0;entryDx=0;entryDy=0;fontSize=16;" edge="1" parent="1" source="1HW_Z-nUwjSf0aDEmiX4-22" target="1HW_Z-nUwjSf0aDEmiX4-20">
          <mxGeometry relative="1" as="geometry" />
        </mxCell>
        <mxCell id="1HW_Z-nUwjSf0aDEmiX4-22" value="MemoryConsumer" style="rounded=1;whiteSpace=wrap;html=1;fontSize=16;fillColor=#fff2cc;strokeColor=#d6b656;" vertex="1" parent="1">
          <mxGeometry x="200" y="120" width="200" height="40" as="geometry" />
        </mxCell>
        <mxCell id="1HW_Z-nUwjSf0aDEmiX4-29" style="edgeStyle=none;rounded=0;orthogonalLoop=1;jettySize=auto;html=1;exitX=0.5;exitY=1;exitDx=0;exitDy=0;fontSize=16;" edge="1" parent="1" source="1HW_Z-nUwjSf0aDEmiX4-23">
          <mxGeometry relative="1" as="geometry">
            <mxPoint x="540" y="240" as="targetPoint" />
          </mxGeometry>
        </mxCell>
        <mxCell id="1HW_Z-nUwjSf0aDEmiX4-23" value="MemoryConsumer" style="rounded=1;whiteSpace=wrap;html=1;fontSize=16;fillColor=#fff2cc;strokeColor=#d6b656;" vertex="1" parent="1">
          <mxGeometry x="440" y="120" width="200" height="40" as="geometry" />
        </mxCell>
        <mxCell id="1HW_Z-nUwjSf0aDEmiX4-30" style="edgeStyle=none;rounded=0;orthogonalLoop=1;jettySize=auto;html=1;exitX=0.5;exitY=1;exitDx=0;exitDy=0;entryX=0.5;entryY=0;entryDx=0;entryDy=0;fontSize=16;" edge="1" parent="1" source="1HW_Z-nUwjSf0aDEmiX4-24" target="1HW_Z-nUwjSf0aDEmiX4-20">
          <mxGeometry relative="1" as="geometry" />
        </mxCell>
        <mxCell id="1HW_Z-nUwjSf0aDEmiX4-24" value="MemoryConsumer" style="rounded=1;whiteSpace=wrap;html=1;fontSize=16;fillColor=#fff2cc;strokeColor=#d6b656;" vertex="1" parent="1">
          <mxGeometry x="680" y="120" width="200" height="40" as="geometry" />
        </mxCell>
      </root>
    </mxGraphModel>
  </diagram>
</mxfile>
